<svg width="122" height="60" viewBox="0 0 122 60" fill="none" xmlns="http://www.w3.org/2000/svg">
<path d="M103.915 26.4238C105.913 21.598 105.581 16.3323 102.986 11.6993C100.391 7.06633 95.7274 3.41447 89.9461 1.48759C84.1648 -0.439283 77.7004 -0.49624 71.8694 1.32832C66.0384 3.15289 61.2796 6.72173 58.5621 11.3079C56.0804 10.1644 53.3125 9.49569 50.4675 9.35223C47.6226 9.20877 44.7748 9.59433 42.1392 10.4798C39.5036 11.3653 37.1492 12.7275 35.2536 14.4637C33.3579 16.1998 31.9707 18.2645 31.1966 20.5019C27.806 19.7411 24.2551 19.5807 20.7822 20.0313C17.3093 20.482 13.9948 21.5333 11.0611 23.1147C8.12737 24.6961 5.64239 26.7711 3.77289 29.2002C1.9034 31.6294 0.692653 34.3567 0.221913 37.1989C-0.248827 40.0411 0.0313328 42.9326 1.04359 45.6793C2.05584 48.4259 3.77678 50.9642 6.09088 53.1238C8.40498 55.2833 11.2587 57.0142 14.4605 58.2002C17.6624 59.3862 21.1382 59.9998 24.6548 60H101.331C106.588 60.0008 111.648 58.3674 115.481 55.4322C119.313 52.4971 121.63 48.481 121.959 44.2017C122.289 39.9223 120.606 35.7015 117.253 32.3986C113.901 29.0957 109.131 26.9591 103.915 26.4238V26.4238Z" fill="white"/>
<path d="M29.8232 49.5894H33.9364L24.9013 30.23H24.7841L15.7607 49.5894H19.8622L21.0692 46.9527H28.6278L29.8232 49.5894ZM22.5458 43.7183L24.8544 38.6675L27.1513 43.7183H22.5458ZM43.1357 49.9527C45.995 49.9527 48.0224 48.7105 49.6864 47.0582L47.5067 43.9878C46.2528 45.2183 44.7528 46.1441 43.0185 46.1441C40.1005 46.1441 37.1005 43.5425 37.1005 40.1792C37.1005 36.8746 39.995 34.1792 43.0302 34.1792C44.6591 34.1792 46.206 34.9527 47.495 36.2183L49.6864 33.23C47.706 31.3199 45.5263 30.3472 43.0653 30.3121C37.745 30.3121 33.2567 34.8238 33.2567 40.1558C33.2567 45.4644 37.6864 49.9527 43.1357 49.9527ZM63.2099 34.4371V30.6988H51.8192V49.5894H63.2099V45.816H55.6161V41.9136H62.1317V38.1285H55.6161V34.4371H63.2099Z" fill="#44AAAC"/>
<path d="M71.0652 37.5966H71.1971L73.2332 32.3769L75.2791 37.5966H75.4158L77.8572 29.6767H76.9002L75.1912 35.4238L73.2771 30.3164H73.2088L71.285 35.4238L69.576 29.6767H68.6238L71.0652 37.5966ZM83.4334 30.5507V29.6767H78.8094V37.5478H83.4334V36.664H79.698V33.9296H82.9353V33.041H79.698V30.5507H83.4334ZM88.2332 33.1142C88.6336 33.1142 89.2537 32.4941 89.2537 31.6396C89.2537 30.6045 88.3064 29.6767 86.993 29.6767H84.8445V37.5478H87.7596C89.2635 37.5478 90.2498 36.3906 90.2498 35.1455C90.2498 33.9589 89.2439 33.1142 88.2332 33.1142ZM87.0418 30.541C87.7889 30.541 88.4187 31.0683 88.4187 31.7421C88.4187 32.4062 87.8914 32.9287 87.0369 32.9238H85.7283V30.541H87.0418ZM87.6863 36.6787H85.7283V33.7148H87.6424C88.6824 33.7099 89.3807 34.3496 89.3807 35.0869C89.3807 36 88.5848 36.6787 87.6863 36.6787ZM71.5193 43.6718L69.327 43.6767V51.5478H71.5193C73.9705 51.5478 75.533 50.0195 75.533 47.6171C75.533 45.205 73.9705 43.6718 71.5193 43.6718ZM71.5291 50.6591H70.2156V44.5556H71.5145C73.4187 44.5556 74.6395 45.7568 74.6395 47.6171C74.6395 49.4677 73.4236 50.6591 71.5291 50.6591ZM81.4021 44.5507V43.6767H76.7781V51.5478H81.4021V50.664H77.6668V47.9296H80.9041V47.041H77.6668V44.5507H81.4021ZM84.991 51.6552C86.5047 51.6552 87.7596 50.7714 87.7596 49.414C87.7596 48.1494 86.6414 47.6025 85.4598 47.124C84.4441 46.7334 83.5799 46.455 83.5799 45.6933C83.5799 44.9902 84.3025 44.4336 85.1473 44.4336C85.8553 44.4336 86.49 44.8339 86.7439 45.4248L87.4129 44.9755C87.1199 44.1992 86.324 43.5595 85.157 43.5595C83.7752 43.5595 82.6863 44.4629 82.6863 45.6738C82.6863 46.8896 83.7654 47.3632 84.7322 47.7392C85.7381 48.1201 86.866 48.5449 86.866 49.4287C86.866 50.205 86.0262 50.7617 84.9959 50.7617C84.1609 50.7617 83.3553 50.3125 82.9988 49.6386L82.3152 50.1416C82.6912 50.9814 83.6971 51.6552 84.991 51.6552ZM88.9266 51.5478H89.8152V43.6767H88.9266V51.5478ZM98.8338 47.3779H95.0936V48.1787H97.9158C97.9207 48.2226 97.9207 48.2763 97.9207 48.3349C97.9207 49.7265 96.7098 50.7568 95.1717 50.7568C93.3553 50.7568 91.9637 49.3457 91.9637 47.6171C91.9637 45.8349 93.4383 44.458 95.0984 44.458C95.8895 44.458 96.8465 44.8828 97.4568 45.4882L97.9549 44.7509C97.2469 44.0625 96.0701 43.5742 95.1033 43.5693C92.8816 43.5693 91.0603 45.3955 91.0603 47.6171C91.0603 49.8388 92.8768 51.6552 95.1375 51.6552C97.1687 51.6552 98.868 50.1464 98.868 47.9394C98.868 47.7148 98.8484 47.5048 98.8338 47.3779ZM105.557 43.6572V49.541L100.167 43.5546H100.118V51.5576H101.007V45.6787L106.402 51.6699H106.446V43.6572H105.557Z" fill="#44AAAC"/>
</svg>
